<?xml version="1.0" encoding="UTF-8" standalone="no"?>
<!DOCTYPE svg PUBLIC "-//W3C//DTD SVG 1.1//EN" "http://www.w3.org/Graphics/SVG/1.1/DTD/svg11.dtd">
<svg width="100%" height="100%" viewBox="0 0 3090 1800" version="1.1" xmlns="http://www.w3.org/2000/svg" xmlns:xlink="http://www.w3.org/1999/xlink" xml:space="preserve" xmlns:serif="http://www.serif.com/" style="fill-rule:evenodd;clip-rule:evenodd;stroke-linejoin:round;stroke-miterlimit:2;">
    <rect id="Artboard1" x="0" y="0" width="3089.58" height="1800" style="fill:none;"/>
    <g>
        <clipPath id="_clip1">
            <rect x="0" y="0" width="3089.58" height="1800"/>
        </clipPath>
        <g clip-path="url(#_clip1)">
            <path d="M3322.94,-21.848L3141.09,-21.848L3041.01,162.606L3322.94,292.314L3322.94,-21.848Z" style="fill:rgb(47,47,47);fill-rule:nonzero;"/>
            <path d="M3322.94,339.66C3226.74,-27.178 2980.66,-182.772 2537.22,-21.848L2503.66,-21.848L3322.94,349.969L3322.94,339.66Z" style="fill:rgb(47,47,47);fill-rule:nonzero;"/>
            <path d="M3322.94,671.164C3316.9,671.973 3310.96,672.335 3305.33,672.352C3291.96,672.156 3281.11,670.881 3271.48,666.377C3256.03,658.627 3252.22,658.081 3160.89,609.735C3145.23,601.435 3130.79,598.327 3117.12,598.327C3080.46,597.719 3047.08,623.085 3028.95,640.56L3172.6,713.956L3322.94,860.102L3322.94,671.164Z" style="fill:rgb(47,47,47);fill-rule:nonzero;"/>
            <path d="M3322.94,461.302L2960.53,297.831L2832.87,540.381L2998.93,625.227C3017.21,605.364 3059.37,566.923 3117.12,566.04C3135.83,566.019 3155.95,570.535 3176,581.206C3267.56,629.669 3269.1,629.102 3285.91,637.506C3286.5,638.094 3295.57,640.269 3305.33,640.089C3310.94,640.114 3317.06,639.581 3322.94,638.494L3322.94,461.302Z" style="fill:rgb(47,47,47);fill-rule:nonzero;"/>
            <path d="M2167.97,1473.64L2379.04,1260.06L1965.12,1124.52L1977.84,1634.93L2167.97,1473.64Z" style="fill:rgb(47,47,47);fill-rule:nonzero;"/>
            <path d="M2421.05,54.506L2342.24,236.852L2799.9,464.473L2901.59,271.248L2421.05,54.506Z" style="fill:rgb(47,47,47);fill-rule:nonzero;"/>
            <path d="M1529.58,701.323C1652.59,716.498 1785.18,733.21 1901.94,748.048L1900.08,673.481L1546.29,640.014L1529.58,701.323Z" style="fill:rgb(47,47,47);fill-rule:nonzero;"/>
            <path d="M2074.64,655.348L2298.49,673.056L2364.33,630.469L2341.8,586.177L1975.11,-21.848L1936.56,-21.848L1953.19,645.739L2041.28,652.715L2088.54,522.735L2118.85,533.764L2074.64,655.348Z" style="fill:rgb(47,47,47);fill-rule:nonzero;"/>
            <path d="M2391.63,41.231L2251.79,-21.848L2092.78,-21.848L2203.89,196.531L2312.74,223.731L2391.63,41.231Z" style="fill:rgb(47,47,47);fill-rule:nonzero;"/>
            <path d="M2189.97,1497.31L2166.76,1516.98L2380.68,1614.68C2386.67,1604.68 2393.27,1594.1 2400.43,1583.18C2434.54,1531.52 2479.8,1472.85 2531.6,1444.43C2563.18,1427.27 2624.48,1391.98 2691.55,1352.93L2640.91,1264.98L2668.89,1248.85L2719.45,1336.68C2733.77,1328.35 2748.18,1319.93 2762.51,1311.52L2615.35,1066.85L2459.67,1224.39L2564.14,1328.85L2541.32,1351.68L2436.97,1247.35L2383.16,1301.81L2454.25,1377.64L2430.72,1399.68L2360.47,1324.77L2189.97,1497.31Z" style="fill:rgb(47,47,47);fill-rule:nonzero;"/>
            <path d="M2919.48,1684.22L2961.8,1642.89L2779.13,1339.18C2764.63,1347.64 2750.03,1356.18 2735.53,1364.64L2919.48,1684.22Z" style="fill:rgb(47,47,47);fill-rule:nonzero;"/>
            <path d="M2981.18,1220.22C2957.84,1234.05 2896.24,1270.43 2825.51,1311.97L3001.3,1604.26L3187.15,1422.14L2981.18,1220.22Z" style="fill:rgb(47,47,47);fill-rule:nonzero;"/>
            <path d="M2237.04,791.006L2238.15,791.239C2238.15,791.219 2238.25,791.269 2239.46,791.46C2240.69,791.648 2242.64,791.931 2245.25,792.235C2250.42,792.814 2258.11,793.456 2267.39,793.427C2290.69,793.498 2323.43,789.369 2352.43,773.164C2364.51,766.46 2387.94,752.839 2417.69,735.352L2379.04,659.373L2306.83,706.09L1954,678.16L1955.91,754.919C2116.77,775.431 2235.94,790.881 2235.99,790.894L2237.04,791.006Z" style="fill:rgb(47,47,47);fill-rule:nonzero;"/>
            <path d="M3228.75,1381.39L3176.53,1316.1L3322.94,1140.93L3322.94,905.111L3153.55,740.457L3006.17,665.161L2654.29,1027.24L2808.9,1284.31C2872.7,1246.85 2929.08,1213.55 2956.7,1197.22L2780.69,1023.73L2803.33,1000.72L3210.19,1399.56L3228.75,1381.39Z" style="fill:rgb(47,47,47);fill-rule:nonzero;"/>
            <path d="M2778.51,1821.85L2952.34,1868.25L3090,1830.15L3026.39,1666.83L2895.63,1707.52L2707.64,1380.89C2640.53,1419.98 2579.14,1455.27 2546.98,1472.73C2496.24,1499.64 2443.61,1573.18 2410.17,1628.14L2557,1695.18L2627.59,1576.68L2655.31,1593.23L2586.53,1708.68L2736.89,1777.31L2723.48,1806.68L2577.12,1739.85L2572.49,1763.85L2703.19,1821.85L2778.51,1821.85Z" style="fill:rgb(47,47,47);fill-rule:nonzero;"/>
            <path d="M2351.81,1665.97C2355.03,1659.8 2359.26,1651.93 2364.41,1642.72L2139.58,1540.05L2114.96,1560.93L2351.81,1665.97Z" style="fill:rgb(47,47,47);fill-rule:nonzero;"/>
            <path d="M1440.9,1242.93L1624.56,1280.6L1634.3,1196.81L1491.86,1154.18L1491.48,1154.1L1491.41,1154.06L1500.58,1123.14L1500.67,1123.18L1500.67,1123.14L1501.31,1123.35L1669.59,1172.68L1669.47,1173.64L1812.82,1216.51L1912.95,1214.22L1913.49,1211.51L1912.95,1189.68L1818.17,1178.68L1679.67,1137.97L1688.78,1107.01L1824.67,1146.93L1912.13,1157.1L1906.11,915.376L1496.3,881.239C1481.67,967.755 1464.12,1077.17 1450.2,1181.1C1447.51,1201.05 1444.38,1221.72 1440.9,1242.93Z" style="fill:rgb(47,47,47);fill-rule:nonzero;"/>
            <path d="M1905.3,882.931L1903.57,813.294C1872.56,809.356 1840.38,805.273 1807.46,801.11C1712.4,789.085 1611.48,776.439 1516.59,764.739C1512.62,786.898 1507.51,815.756 1501.75,849.319L1905.3,882.931Z" style="fill:rgb(47,47,47);fill-rule:nonzero;"/>
            <path d="M2388.96,560.244L2474.37,701.877C2510.05,680.748 2549.3,657.39 2587.28,634.731C2667.98,586.614 2743.04,541.619 2766.8,527.377L2784.88,493.01L2329.42,266.523L2288.12,362.06L2388.96,560.244Z" style="fill:rgb(47,47,47);fill-rule:nonzero;"/>
            <path d="M1092.43,1033.09L939.955,1007.67L916.943,1217.97L1026.35,1239.47L1092.04,1035.84L1092.43,1033.09Z" style="fill:rgb(47,47,47);fill-rule:nonzero;"/>
            <path d="M874.86,1231.64L758.106,1211.22L721.348,1286.97L906.319,1372.64L897.277,1392.14L711.956,1306.35L677.969,1376.35L859.635,1458.64L850.769,1478.22L668.581,1395.72L606.54,1523.56L954.906,1535.97L1056.27,1267.26L874.86,1231.64Z" style="fill:rgb(47,47,47);fill-rule:nonzero;"/>
            <path d="M2637.09,998.644L2976.11,649.794L2817.84,568.939L2815.47,573.435L2807.74,578.085C2807.51,578.202 2624.4,688.085 2496.01,764.048L2637.09,998.644Z" style="fill:rgb(47,47,47);fill-rule:nonzero;"/>
            <path d="M3303.77,1478.81C3222.25,1555.77 3147.73,1639.06 3072.31,1722.35L3072.57,1722.77L3313.69,1483.48C3312.23,1483.06 3310.82,1482.52 3309.35,1482.1C3307.32,1481.56 3305.45,1480.39 3303.77,1478.81Z" style="fill:rgb(47,47,47);fill-rule:nonzero;"/>
            <path d="M857.573,765.706L630.881,755.285L780.535,809.977L696.919,978.91L827.944,1004.63L890.144,771.335L857.573,765.706Z" style="fill:rgb(47,47,47);fill-rule:nonzero;"/>
            <path d="M1295.38,1821.85L1392,1821.85L1398.86,1800.85L1463.03,1821.85L1529.01,1821.85L1588.84,1625.23L1426.59,1573.43L1436.4,1542.68L1436.42,1542.73L1436.43,1542.68L1441.75,1544.39L1629.03,1603.98L1545,1851.54L1937.73,1800L1925.63,1698.98L1922.64,1578.6L1470.2,1452.6L1478.85,1421.56L1921.8,1544.85L1917.58,1375.81L1703.11,1340.06L1708.4,1308.23L1916.76,1342.93L1914.36,1246.43L1808.45,1248.89L1665.69,1206.18L1652.53,1319.27L1435.47,1274.77C1399.29,1479.73 1333.67,1720.89 1295.38,1821.85Z" style="fill:rgb(47,47,47);fill-rule:nonzero;"/>
            <path d="M260.523,679.319L227.427,748.26L228.006,748.377L229.452,749.173C248.127,759.435 262.806,771.256 274.331,783.906L305.415,690.673L260.523,679.319Z" style="fill:rgb(73,73,73);fill-rule:nonzero;"/>
            <path d="M1964.27,1090.28L2404.39,1234.43L2598.19,1038.32L2449.69,791.38C2420.01,808.826 2396.45,822.513 2383.75,829.567C2341.06,853.18 2297.61,857.905 2267.39,857.968C2246.3,857.947 2231.37,855.593 2226.86,854.776C2222.93,854.272 2205.49,852.013 2177.68,848.422L2143.94,935.197L1960.02,919.876L1964.27,1090.28Z" style="fill:rgb(47,47,47);fill-rule:nonzero;"/>
            <path d="M2455.32,1821.85L2596,1815.38L2527.97,1681.93L2087.61,1584.1L1978.87,1676.35L1982.29,1838.59L2052.31,1851.54L2141.49,1801.02L2141.46,1801.06L2133.91,1821.85L2455.32,1821.85Z" style="fill:rgb(47,47,47);fill-rule:nonzero;"/>
            <path d="M2223.29,234.644L2269.11,324.689L2299.77,253.76L2223.29,234.644Z" style="fill:rgb(47,47,47);fill-rule:nonzero;"/>
            <path d="M1957.54,820.173L1959.22,887.427L2122.6,901.039L2144.72,844.165C2097.16,838.044 2032.11,829.694 1957.54,820.173Z" style="fill:rgb(47,47,47);fill-rule:nonzero;"/>
            <path d="M847.056,1821.85L946.894,1557.18L270.365,1533.06L255.606,1573.27L548.602,1675.48L537.994,1705.98L244.473,1603.56L-77.805,1759.63L61.509,1956.79L759.031,1821.85L847.056,1821.85Z" style="fill:rgb(47,47,47);fill-rule:nonzero;"/>
            <path d="M115.115,1462.47L20.673,1731.22L133.61,1780.64L230.515,1516.8L115.115,1462.47Z" style="fill:rgb(47,47,47);fill-rule:nonzero;"/>
            <path d="M-4.065,1406.35L-91.365,1682.14L0.906,1722.56L95.548,1453.27L-4.065,1406.35Z" style="fill:rgb(47,47,47);fill-rule:nonzero;"/>
            <path d="M148.331,1136.56L100.41,1119.73L2.869,1385.85L102.723,1432.85L118.635,1387.56L70.056,1364.48L148.331,1136.56Z" style="fill:rgb(73,73,73);fill-rule:nonzero;"/>
            <path d="M369.327,706.835L486.598,744.148L488.756,737.044L369.327,706.835Z" style="fill:rgb(47,47,47);fill-rule:nonzero;"/>
            <path d="M30.619,1160.14L-12.402,1267.68L-98.444,1231.85L-44.669,1120.68L30.619,1160.14ZM-233.356,1280.22L-16.752,1376.85L80.119,1112.56L-161.823,1027.44L-233.356,1174.6L-233.356,1280.22Z" style="fill:rgb(47,47,47);fill-rule:nonzero;"/>
            <path d="M551.094,1229.52L575.648,1176.14L419.977,1104.31L391.306,1183.89L551.094,1229.52Z" style="fill:rgb(47,47,47);fill-rule:nonzero;"/>
            <path d="M524.198,815.156L721.031,881.735L750.631,821.952L575.46,757.931L577.327,752.819L545.327,751.348L520.065,744.96L517.34,753.931L543.29,762.185L524.198,815.156Z" style="fill:rgb(47,47,47);fill-rule:nonzero;"/>
            <path d="M194.781,741.727L227.34,673.906L20.515,652.385L-41.623,780.219L42.456,820.594L33.148,839.985L-51.044,799.59L-152.36,1008L87.523,1092.38L124.494,991.515L144.694,998.898L107.806,1099.52L155.31,1116.22L189.694,1016.12L23.74,948.094L-101.394,912.34L-95.485,891.66L18.415,924.19C31.96,844.469 50.269,796.606 69.848,767.606C90.152,737.148 113.552,727.61 131.219,727.844C143.59,727.873 152.456,731.894 156.36,734.04L194.781,741.727Z" style="fill:rgb(73,73,73);fill-rule:nonzero;"/>
            <path d="M1443.38,495.648C1467.6,361.185 1518.33,236.106 1547.3,103.281C1556.37,61.685 1564.32,19.906 1572.27,-21.844L1347.58,-21.844C1324.33,47.569 1283.61,106.119 1283.61,106.119C1104.93,169.648 1023.01,86.581 996.697,-21.844L663.563,-21.844L600.534,484.548L594.043,483.739C666.368,515.689 710.355,535.202 710.384,535.214C710.426,535.214 723.88,541.148 749.013,550.798C774.143,560.464 810.522,573.677 855.088,587.794C944.168,616.035 1066.01,647.735 1195.66,661.735C1249.06,667.519 1322.93,676.177 1406.87,686.323C1419.11,622.765 1431.91,559.298 1443.38,495.648Z" style="fill:rgb(47,47,47);fill-rule:nonzero;"/>
            <path d="M598.156,242.294L323.131,232.46L323.298,227.819L294.885,352.006C401.223,398.673 496.802,440.79 569.452,472.881L598.156,242.294Z" style="fill:rgb(47,47,47);fill-rule:nonzero;"/>
            <path d="M1123.56,811.71L911.427,775.023L840.248,1042L767.894,1191.1L878.785,1210.51L895.756,1213.85L921.039,982.702L1095.42,1011.77L1106.05,936.223L946.14,901.756L950.677,880.735L1109.04,914.894L1123.56,811.71Z" style="fill:rgb(47,47,47);fill-rule:nonzero;"/>
            <path d="M1882.76,-21.844L1726.62,-21.844L1554.91,608.41L1899.27,640.989L1882.76,-21.844Z" style="fill:rgb(47,47,47);fill-rule:nonzero;"/>
            <path d="M3322.94,397.202L2399.6,-21.848L2356.39,-21.848L3322.94,414.114L3322.94,397.202Z" style="fill:rgb(47,47,47);fill-rule:nonzero;"/>
            <path d="M1693.18,-21.848L1620.2,-21.848C1606.54,48.531 1594.38,119.214 1577.42,189.073C1546.75,315.331 1500.25,434.76 1477.64,563.385C1470.09,606.352 1461.95,649.194 1453.77,692.019C1468.06,693.76 1482.56,695.535 1497.25,697.339L1693.18,-21.848Z" style="fill:rgb(47,47,47);fill-rule:nonzero;"/>
            <path d="M-233.36,606.831L-206.365,607.752L-72.144,348.531L-72.144,348.552L-53.031,358.41L-183.09,609.598L235.577,653.123L288.881,419.839C240.26,398.481 189.215,376.11 136.91,353.235C28.61,305.877 -84.99,256.419 -192.931,209.823L-233.36,278.302L-233.36,606.831Z" style="fill:rgb(47,47,47);fill-rule:nonzero;"/>
            <path d="M122.29,1442.06L255.635,1504.85L269.473,1459.31L138.173,1396.89L122.29,1442.06Z" style="fill:rgb(73,73,73);fill-rule:nonzero;"/>
            <path d="M596.202,1182.93L571.802,1235.97L701.265,1279.1L736.073,1207.38L596.202,1182.93Z" style="fill:rgb(47,47,47);fill-rule:nonzero;"/>
            <path d="M822.385,1025.45L687.035,998.887L605.919,1162.76L745.84,1187.22L820.006,1034.4L822.385,1025.45Z" style="fill:rgb(47,47,47);fill-rule:nonzero;"/>
            <path d="M148.356,754.381L146.531,753.177C146.531,753.219 146.531,753.177 145.944,752.839C145.302,752.514 144.24,751.989 142.873,751.473C140.115,750.423 136.069,749.331 131.219,749.352C120.819,749.564 105.652,753.523 87.652,779.644C70.49,804.935 52.285,851.085 39.023,931.123L91.39,952.581L84.394,948.619L148.927,776.535L251.723,791.648C243.185,783.627 232.923,775.952 220.41,768.794L148.356,754.381Z" style="fill:rgb(73,73,73);fill-rule:nonzero;"/>
            <path d="M584.923,1156.72L665.169,994.586L473.111,956.895L427.306,1083.99L584.923,1156.72Z" style="fill:rgb(47,47,47);fill-rule:nonzero;"/>
            <path d="M675.06,974.614L711.402,901.198L516.894,835.414L480.494,936.419L675.06,974.614Z" style="fill:rgb(47,47,47);fill-rule:nonzero;"/>
            <path d="M418.919,1516.85L541.994,1249.31L384.006,1204.14L362.815,1262.93L287.156,1512.14L418.919,1516.85Z" style="fill:rgb(47,47,47);fill-rule:nonzero;"/>
            <path d="M587.402,1522.85L583.819,1521.1L648.498,1387.85L522.606,1342.89L442.206,1517.68L587.402,1522.85Z" style="fill:rgb(47,47,47);fill-rule:nonzero;"/>
            <path d="M562.76,1255.6L531.64,1323.27L657.94,1368.35L691.794,1298.6L562.76,1255.6Z" style="fill:rgb(47,47,47);fill-rule:nonzero;"/>
            <path d="M60.552,249.498C130.302,279.902 199.277,310.077 264.785,338.802L347.306,-21.844L13.36,-21.844L-78.352,189.094C-42.085,204.827 -5.556,220.694 30.902,236.577L115.723,69.231L144.502,83.831L60.552,249.498Z" style="fill:rgb(47,47,47);fill-rule:nonzero;"/>
            <path d="M1374.87,870.035C1380.75,829.865 1387.64,789.839 1394.94,749.889C1312.9,739.973 1240.83,731.539 1188.7,725.902C917.553,696.448 686.224,594.956 684.374,594.273C684.237,594.219 645.049,576.839 579.849,548.027L526.312,724.377L548.432,729.973L860.028,744.298L1337.43,826.864L1333.77,848.06L1144.77,815.377L1130.14,919.439L1132.97,920.048L1326.23,945.123L1323.46,966.423L1129.6,941.298L1127.14,940.76L1116.65,1015.31L1297.93,1045.54L1294.39,1066.77L1113.66,1036.63L1113.1,1040.59L1047.6,1243.64L1262.39,1285.81L1262.37,1285.81L1258.25,1306.89L1077.67,1271.47L977.445,1537.1L1221.6,1563.31C1244.7,1473.39 1273.5,1385.51 1298.58,1295.47C1337.47,1155.81 1353.94,1013.06 1374.87,870.035Z" style="fill:rgb(47,47,47);fill-rule:nonzero;"/>
            <path d="M1169.41,1821.85C1178.61,1773.56 1187.65,1725.27 1196.34,1676.93C1201.95,1645.68 1208.75,1614.89 1216.24,1584.35L970.826,1558.06L969.568,1558.02L870.043,1821.85L1169.41,1821.85Z" style="fill:rgb(47,47,47);fill-rule:nonzero;"/>
            <path d="M1260.84,1821.85C1261.63,1819.81 1262.42,1817.73 1263.21,1815.73C1305.45,1707.77 1389,1395.31 1418.19,1176.81C1439.72,1016.44 1469.68,843.683 1484.53,760.8C1470.05,759.029 1455.76,757.275 1441.67,755.562C1427.32,831.287 1413.58,907.108 1403.37,983.596C1386.33,1111.14 1368.64,1239.27 1332.85,1363.18C1294.07,1497.43 1252,1627.73 1226.84,1765.52C1223.41,1784.31 1219.87,1803.06 1216.37,1821.85L1260.84,1821.85Z" style="fill:rgb(47,47,47);fill-rule:nonzero;"/>
            <path d="M631.044,-21.844L380.41,-21.844L329.569,200.406L602.16,210.139L631.044,-21.844Z" style="fill:rgb(47,47,47);fill-rule:nonzero;"/>
            <path d="M520.527,521.831C463.527,496.669 394.681,466.323 318.969,433.06L267.369,658.844L495.006,716.456L550.127,534.898C540.631,530.706 530.819,526.381 520.527,521.831Z" style="fill:rgb(47,47,47);fill-rule:nonzero;"/>
            <path d="M380.931,1203.26L362.815,1262.93L384.006,1204.14L380.931,1203.26Z" style="fill:rgb(73,73,73);fill-rule:nonzero;"/>
            <path d="M305.415,690.673L274.331,783.906C301.648,813.91 310.84,848.706 310.602,879.339C310.494,926.056 291.402,964.081 287.935,970.719L228.044,1141.14L355.944,1174.47L486.598,744.148L369.327,706.835L305.415,690.673Z" style="fill:rgb(47,47,47);fill-rule:nonzero;"/>
            <path d="M148.331,1136.56L70.056,1364.48L118.635,1387.56L200.415,1154.89L148.331,1136.56Z" style="fill:rgb(47,47,47);fill-rule:nonzero;"/>
            <path d="M427.306,1083.99L473.111,956.894L456.698,953.677L418.381,1079.87L427.306,1083.99Z" style="fill:rgb(73,73,73);fill-rule:nonzero;"/>
            <path d="M138.173,1396.89L269.473,1459.31L349.694,1195.06L220.902,1161.47L138.173,1396.89Z" style="fill:rgb(47,47,47);fill-rule:nonzero;"/>
            <path d="M391.306,1183.89L419.977,1104.31L412.073,1100.68L387.169,1182.68L391.306,1183.89Z" style="fill:rgb(73,73,73);fill-rule:nonzero;"/>
            <path d="M524.198,815.156L543.29,762.185L517.34,753.931L501.119,807.352L524.198,815.156Z" style="fill:rgb(73,73,73);fill-rule:nonzero;"/>
            <path d="M207.544,1134.64L241.931,1036.76L241.656,1037.42L189.694,1016.12L155.31,1116.22L207.544,1134.64Z" style="fill:rgb(47,47,47);fill-rule:nonzero;"/>
            <path d="M84.394,948.619L91.39,952.581L248.831,1017.11L268.169,962.081L268.577,961.327C268.515,961.265 273.569,952.369 278.756,937.298C283.965,922.244 289.11,901.531 289.09,879.339C288.831,850.135 280.723,818.873 251.723,791.648L148.927,776.535L84.394,948.619Z" style="fill:rgb(47,47,47);fill-rule:nonzero;"/>
            <path d="M480.494,936.419L516.894,835.414L494.869,827.969L462.981,932.981L480.494,936.419Z" style="fill:rgb(73,73,73);fill-rule:nonzero;"/>
            <path d="M-12.402,1267.68L30.619,1160.14L-44.669,1120.68L-98.448,1231.84L-12.402,1267.68Z" style="fill:rgb(73,73,73);fill-rule:nonzero;"/>
            <path d="M1283.6,106.119C1283.6,106.119 1324.32,47.569 1347.58,-21.848L996.692,-21.848C1023,86.581 1104.92,169.648 1283.6,106.119Z" style="fill:rgb(170,207,154);fill-rule:nonzero;"/>
            <path d="M1477.64,563.385C1500.25,434.76 1546.75,315.331 1577.42,189.073C1594.38,119.214 1606.54,48.531 1620.2,-21.848L1572.27,-21.848C1564.32,19.906 1556.37,61.685 1547.29,103.281C1518.33,236.106 1467.6,361.185 1443.38,495.648C1431.91,559.298 1419.11,622.765 1406.87,686.323C1422.19,688.177 1437.84,690.073 1453.77,692.019C1461.96,649.194 1470.09,606.352 1477.64,563.385Z" style="fill:rgb(115,189,186);fill-rule:nonzero;"/>
            <path d="M3303.77,1478.81C3305.45,1480.39 3307.32,1481.56 3309.35,1482.1C3310.82,1482.52 3312.23,1483.06 3313.69,1483.48L3322.94,1474.27L3322.94,1364.35L3029.79,1651.64L3072.31,1722.35C3147.73,1639.06 3222.25,1555.77 3303.77,1478.81Z" style="fill:rgb(47,47,47);fill-rule:nonzero;"/>
            <path d="M1216.37,1821.85C1219.87,1803.06 1223.41,1784.31 1226.84,1765.52C1252,1627.73 1294.07,1497.43 1332.85,1363.18C1368.64,1239.27 1386.33,1111.14 1403.37,983.596C1413.58,907.108 1427.32,831.287 1441.67,755.562C1425.79,753.625 1410.21,751.733 1394.95,749.891C1387.64,789.846 1380.76,829.867 1374.88,870.037C1353.95,1013.06 1337.48,1155.81 1298.59,1295.48C1273.51,1385.52 1244.71,1473.39 1221.61,1563.31L1223.8,1563.52L1221.5,1584.89L1216.25,1584.35C1208.75,1614.89 1201.96,1645.68 1196.35,1676.93C1187.66,1725.27 1178.61,1773.56 1169.42,1821.85L1216.37,1821.85Z" style="fill:rgb(115,189,186);fill-rule:nonzero;"/>
            <path d="M3322.94,349.969L2503.66,-21.848L2399.6,-21.848L3322.94,397.202L3322.94,349.969Z" style="fill:rgb(47,47,47);fill-rule:nonzero;"/>
            <path d="M2735.53,1364.64C2750.03,1356.18 2764.62,1347.64 2779.12,1339.18L2961.79,1642.89L2919.48,1684.22L2735.53,1364.64ZM2531.59,1444.43C2479.79,1472.85 2434.54,1531.52 2400.43,1583.18C2393.26,1594.1 2386.67,1604.68 2380.68,1614.68L2166.75,1516.97L2189.96,1497.31L2360.46,1324.77L2430.71,1399.68L2454.24,1377.64L2383.15,1301.81L2436.97,1247.35L2541.31,1351.68L2564.14,1328.85L2459.66,1224.39L2615.35,1066.85L2762.5,1311.52C2748.18,1319.93 2733.76,1328.35 2719.44,1336.68L2668.88,1248.85L2640.91,1264.97L2691.55,1352.93C2624.48,1391.97 2563.18,1427.27 2531.59,1444.43ZM2364.41,1642.72C2359.25,1651.93 2355.02,1659.81 2351.8,1665.97L2114.95,1560.93L2139.57,1540.06L2364.41,1642.72ZM2546.91,1726.06L2542.22,1750.43L2381.35,1679.1C2383.3,1675.39 2385.56,1671.14 2388.19,1666.35C2389.91,1663.14 2391.78,1659.72 2393.79,1656.14L2546.91,1726.06ZM1977.84,1634.93L1965.12,1124.52L2379.03,1260.06L2167.96,1473.64L1977.84,1634.93ZM1669.46,1173.64L1669.58,1172.68L1501.31,1123.35L1500.66,1123.14L1500.66,1123.18L1500.57,1123.14L1491.41,1154.06L1491.48,1154.1L1491.86,1154.18L1634.3,1196.81L1624.55,1280.6L1440.9,1242.93C1444.37,1221.72 1447.5,1201.05 1450.19,1181.1C1464.12,1077.17 1481.67,967.757 1496.3,881.241L1906.1,915.378L1912.13,1157.1L1824.66,1146.93L1688.78,1107.02L1679.66,1137.97L1818.17,1178.68L1912.94,1189.68L1913.49,1211.51L1912.95,1214.22L1812.81,1216.52L1669.46,1173.64ZM1516.58,764.74C1611.48,776.44 1712.39,789.086 1807.45,801.111C1840.37,805.274 1872.55,809.357 1903.56,813.295L1905.29,882.932L1501.74,849.32C1507.51,815.757 1512.61,786.899 1516.58,764.74ZM1955.91,754.92L1954,678.161L2306.83,706.091L2379.03,659.374L2417.69,735.353C2387.93,752.84 2364.5,766.461 2352.43,773.165C2323.43,789.374 2290.68,793.499 2267.39,793.424C2258.11,793.457 2250.41,792.815 2245.24,792.236C2242.63,791.932 2240.69,791.649 2239.46,791.461C2238.24,791.274 2238.15,791.22 2238.15,791.24L2237.03,791.011L2235.99,790.895C2235.93,790.882 2116.77,775.432 1955.91,754.92ZM1529.57,701.324L1546.29,640.015L1900.07,673.482L1901.93,748.049C1785.18,733.211 1652.59,716.499 1529.57,701.324ZM2388.95,560.245L2288.11,362.061L2329.41,266.524L2784.87,493.016L2766.79,527.382C2743.03,541.62 2667.97,586.615 2587.27,634.732C2549.29,657.391 2510.04,680.745 2474.36,701.878L2388.95,560.245ZM2223.28,234.645L2299.76,253.761L2269.1,324.69L2223.28,234.645ZM2421.04,54.503L2901.59,271.249L2799.89,464.474L2342.24,236.849L2421.04,54.503ZM2976.11,649.795L2637.09,998.645L2496.01,764.049C2624.4,688.086 2807.51,578.203 2807.74,578.086L2815.47,573.436L2817.84,568.94L2976.11,649.795ZM2122.59,901.04L1959.21,887.428L1957.54,820.174C2032.11,829.691 2097.15,838.04 2144.71,844.166L2122.59,901.04ZM2598.19,1038.32L2404.39,1234.43L1964.27,1090.27L1960.02,919.874L2143.94,935.195L2177.68,848.42C2205.49,852.011 2222.93,854.27 2226.86,854.774C2231.37,855.591 2246.3,857.945 2267.39,857.966C2297.61,857.903 2341.06,853.178 2383.75,829.565C2396.45,822.507 2420.01,808.824 2449.69,791.378L2598.19,1038.32ZM2981.18,1220.22L3187.15,1422.14L3001.3,1604.27L2825.51,1311.97C2896.24,1270.43 2957.84,1234.06 2981.18,1220.22ZM495,716.457L267.363,658.845L318.963,433.061C394.675,466.324 463.521,496.67 520.521,521.832C530.813,526.382 540.625,530.707 550.121,534.899L495,716.457ZM488.75,737.045L486.592,744.149L355.938,1174.47L228.038,1141.14L287.929,970.72C291.392,964.082 310.488,926.057 310.592,879.34C310.834,848.707 301.642,813.911 274.325,783.907C262.8,771.257 248.121,759.436 229.446,749.174L227.996,748.378L227.417,748.261L260.517,679.32L305.409,690.674L369.321,706.836L488.75,737.045ZM545.317,751.349L577.321,752.82L575.454,757.932L750.625,821.953L721.025,881.736L524.188,815.157L501.113,807.353L517.334,753.932L520.059,744.961L545.317,751.349ZM857.567,765.707L890.138,771.336L827.938,1004.63L696.913,978.907L780.525,809.978L630.88,755.286L857.567,765.707ZM1123.55,811.711L1109.03,914.895L950.667,880.74L946.13,901.757L1106.04,936.224L1095.41,1011.77L921.029,982.703L895.746,1213.85L878.775,1210.51L767.884,1191.1L840.238,1042L911.417,775.024L1123.55,811.711ZM1092.42,1033.1L1092.03,1035.85L1026.34,1239.47L916.934,1217.97L939.946,1007.67L1092.42,1033.1ZM1056.27,1267.26L954.9,1535.97L606.534,1523.56L668.575,1395.72L850.763,1478.22L859.629,1458.64L677.963,1376.35L711.95,1306.35L897.271,1392.14L906.313,1372.64L721.342,1286.97L758.1,1211.22L874.854,1231.64L1056.27,1267.26ZM133.604,1780.64L20.663,1731.22L115.109,1462.47L230.509,1516.81L133.604,1780.64ZM-91.371,1682.14L-4.071,1406.35L95.542,1453.27L0.896,1722.56L-91.371,1682.14ZM349.688,1195.06L269.467,1459.31L255.629,1504.85L122.284,1442.06L138.171,1396.85L220.896,1161.47L349.688,1195.06ZM419.971,1104.31L575.642,1176.14L551.084,1229.52L391.304,1183.89L387.163,1182.68L412.067,1100.68L419.971,1104.31ZM605.913,1162.77L687.029,998.886L822.384,1025.45L820,1034.41L745.838,1187.22L605.913,1162.77ZM571.796,1235.97L596.196,1182.93L736.067,1207.39L701.259,1279.1L571.796,1235.97ZM531.634,1323.27L562.754,1255.6L691.788,1298.6L657.934,1368.35L531.634,1323.27ZM418.913,1516.85L287.15,1512.14L362.809,1262.93L380.925,1203.27L384,1204.14L541.988,1249.31L418.913,1516.85ZM522.6,1342.89L648.492,1387.85L583.813,1521.1L587.396,1522.85L442.2,1517.68L522.6,1342.89ZM480.488,936.42L462.975,932.982L494.863,827.97L516.888,835.415L711.396,901.199L675.054,974.615L480.488,936.42ZM473.105,956.903L665.159,994.59L584.917,1156.72L427.3,1084L418.379,1079.88L456.692,953.682L473.105,956.903ZM2.863,1385.85L100.404,1119.72L148.325,1136.56L200.404,1154.89L118.629,1387.56L102.717,1432.85L2.863,1385.85ZM131.213,749.353C136.063,749.332 140.109,750.424 142.867,751.474C144.234,751.99 145.296,752.515 145.938,752.84C146.525,753.178 146.525,753.22 146.525,753.178L148.35,754.382L220.404,768.795C232.917,775.953 243.179,783.628 251.717,791.649C280.717,818.874 288.825,850.136 289.084,879.34C289.104,901.532 283.959,922.245 278.75,937.299C273.563,952.37 268.509,961.266 268.571,961.328L268.163,962.082L248.825,1017.11L91.384,952.582L39.017,931.124C52.279,851.086 70.484,804.936 87.646,779.645C105.646,753.524 120.813,749.565 131.213,749.353ZM107.8,1099.52L144.688,998.899L124.488,991.516L87.517,1092.39L-152.366,1008L-51.05,799.591L33.142,839.986L42.45,820.595L-41.629,780.22L20.509,652.386L227.334,673.907L194.775,741.728L156.354,734.041C152.45,731.895 143.584,727.874 131.213,727.845C113.546,727.611 90.142,737.149 69.842,767.607C50.263,796.607 31.954,844.47 18.404,924.191L-95.491,891.661L-101.4,912.341L23.734,948.095L189.688,1016.12L241.65,1037.42L241.925,1036.76L207.538,1134.64L155.3,1116.22L107.8,1099.52ZM294.884,352.007L323.292,227.82L323.125,232.461L598.15,242.295L569.446,472.882C496.792,440.791 401.217,398.674 294.884,352.007ZM3304.61,1568.23L3322.94,1577.93L3322.94,1474.27L3313.69,1483.48L3072.57,1722.77L3072.31,1722.35L3029.78,1651.64L3322.94,1364.35L3322.94,1289.06L3228.75,1381.39L3210.18,1399.56L2803.33,1000.73L2780.68,1023.73L2956.7,1197.23C2929.08,1213.56 2872.7,1246.85 2808.89,1284.31L2654.29,1027.24L3006.17,665.164L3153.55,740.46L3322.94,905.114L3322.94,860.106L3172.6,713.96L3028.95,640.564C3047.08,623.085 3080.46,597.723 3117.11,598.331C3130.8,598.331 3145.23,601.443 3160.89,609.735C3252.21,658.081 3256.03,658.631 3271.48,666.381C3281.11,670.885 3291.96,672.156 3305.33,672.356C3310.95,672.343 3316.9,671.977 3322.94,671.168L3322.94,638.502C3317.06,639.585 3310.94,640.118 3305.33,640.093C3295.56,640.268 3286.5,638.093 3285.91,637.51C3269.1,629.106 3267.56,629.673 3176,581.214C3155.95,570.539 3135.83,566.023 3117.11,566.044C3059.37,566.927 3017.21,605.368 2998.93,625.231L2832.87,540.385L2960.53,297.835L3322.94,461.306L3322.94,414.118L2356.39,-21.84L2251.78,-21.84L2391.63,41.235L2312.74,223.735L2203.89,196.531L2092.78,-21.84L1975.11,-21.84L2341.8,586.181L2364.33,630.473L2298.49,673.06L2074.64,655.352L2118.85,533.768L2088.53,522.739L2041.28,652.719L1953.18,645.743L1936.56,-21.84L1882.75,-21.84L1899.26,640.993L1554.9,608.414L1726.61,-21.84L1693.18,-21.84L1497.24,697.348C1482.56,695.539 1468.06,693.764 1453.76,692.023C1437.83,690.077 1422.19,688.181 1406.86,686.327C1322.92,676.181 1249.05,667.523 1195.65,661.739C1066.01,647.739 944.16,616.039 855.08,587.798C810.514,573.681 774.135,560.468 749.005,550.802C723.872,541.152 710.418,535.218 710.376,535.218C710.347,535.206 666.36,515.693 594.035,483.743L600.526,484.552L663.555,-21.84L631.039,-21.84L602.155,210.143L329.564,200.41L380.405,-21.84L347.301,-21.84L264.78,338.806C199.272,310.081 130.297,279.906 60.547,249.502L144.497,83.835L115.718,69.235L30.897,236.581C-5.561,220.698 -42.09,204.831 -78.357,189.098L13.355,-21.84L-21.811,-21.84L-53.182,50.31L-165.011,5.123L-177.086,35.027L-66.057,79.914L-107.945,176.281C-150.54,157.839 -192.511,139.727 -233.365,122.164L-233.365,192.402C-229.84,193.919 -226.332,195.431 -222.795,196.952L-233.365,214.852L-233.365,278.306L-192.936,209.827C-84.995,256.423 28.605,305.881 136.905,353.239C189.21,376.114 240.255,398.485 288.876,419.843L235.572,653.127L-183.095,609.602L-53.036,358.414L-72.149,348.556L-72.149,348.535L-206.37,607.756L-233.365,606.835L-233.365,628.348L-217.324,628.893L-233.365,659.869L-233.365,706.677L-193.711,630.102L-2.24,650.031L-172.79,1000.82L-233.365,979.514L-233.365,1002.28L-182.245,1020.26L-233.365,1125.43L-233.365,1174.6L-161.828,1027.45L80.114,1112.56L-16.757,1376.85L-233.365,1280.22L-233.365,1303.77L-150.586,1340.68L-158.64,1356.73L-233.365,1505.23L-233.365,1553.1L-139.132,1365.81L-130.915,1349.48L-23.761,1397.27L-111.19,1673.48L-233.365,1620.02L-233.365,1655.23L-120.978,1704.43L-141.074,1767.89C-169.315,1761.23 -200.557,1751.6 -233.365,1740.06L-233.365,1774.23C-204.428,1784.1 -176.628,1792.48 -150.82,1798.73L-158.14,1821.85L-135.59,1821.85L-101.174,1713.1L-9.836,1753.1L-33.999,1821.85L-11.186,1821.85L9.935,1761.73L122.451,1811.02L118.472,1821.85L245.368,1821.85L173.73,1796.18L217.589,1676.77L656.285,1821.85L759.03,1821.85L228.714,1646.48L244.468,1603.56L537.989,1705.98L548.597,1675.48L255.601,1573.27L270.36,1533.06L946.889,1557.18L847.051,1821.85L870.039,1821.85L969.564,1558.02L970.822,1558.06L1216.24,1584.35L1221.49,1584.89L1223.79,1563.52L1221.61,1563.31L977.443,1537.1L1077.66,1271.48L1258.24,1306.89L1262.37,1285.81L1262.39,1285.81L1047.59,1243.64L1113.1,1040.59L1113.65,1036.64L1294.38,1066.77L1297.92,1045.54L1116.65,1015.32L1127.13,940.764L1129.6,941.302L1323.46,966.427L1326.23,945.127L1132.97,920.052L1130.14,919.443L1144.77,815.381L1333.77,848.064L1337.43,826.868L860.026,744.302L548.43,729.977L526.31,724.381L579.847,548.031C645.047,576.843 684.235,594.223 684.372,594.277C686.222,594.96 917.551,696.452 1188.7,725.906C1240.83,731.543 1312.9,739.977 1394.94,749.893C1410.2,751.735 1425.78,753.627 1441.66,755.564C1455.75,757.277 1470.04,759.031 1484.53,760.806C1469.67,843.685 1439.71,1016.44 1418.18,1176.81C1388.99,1395.31 1305.45,1707.77 1263.2,1815.73C1262.41,1817.73 1261.62,1819.81 1260.84,1821.85L1295.37,1821.85C1333.66,1720.89 1399.29,1479.73 1435.46,1274.77L1652.52,1319.27L1665.68,1206.18L1808.44,1248.89L1914.36,1246.43L1916.75,1342.93L1708.4,1308.23L1703.09,1340.06L1917.57,1375.81L1921.79,1544.85L1478.84,1421.56L1470.19,1452.6L1922.63,1578.6L1925.63,1698.98L1628.96,1604.23L1629.03,1603.98L1441.74,1544.39L1436.42,1542.68L1436.41,1542.73L1436.39,1542.68L1426.58,1573.43L1588.83,1625.23L1529,1821.85L1562.72,1821.85L1589.46,1733.98L1619.56,1635.06L1621.62,1635.73L1661.24,1648.39L1926.48,1733.1L1928.69,1821.85L1982.49,1821.85L1981.89,1798.02L2044.16,1799.98L2062.54,1806.68L2059.73,1821.85L2092.55,1821.85L2093.29,1817.85L2104.26,1821.85L2133.91,1821.85L2141.45,1801.06L2141.48,1801.02L2050.31,1767.85L1981.09,1765.73L1978.87,1676.35L2087.61,1584.1L2482.93,1759.43L2455.31,1821.85L2490.6,1821.85L2512.43,1772.52L2623.6,1821.85L2703.19,1821.85L2572.49,1763.85L2577.12,1739.85L2723.48,1806.68L2736.89,1777.31L2586.54,1708.68L2655.31,1593.23L2627.59,1576.68L2557,1695.18L2410.17,1628.14C2443.6,1573.18 2496.24,1499.64 2546.98,1472.73C2579.14,1455.27 2640.53,1419.98 2707.64,1380.89L2895.63,1707.52L2778.51,1821.85L2855.47,1821.85L2990.27,1690.27L3033.21,1761.64L2971.84,1821.85L3048.65,1821.85L3061.45,1809.27L3068.84,1821.85L3131.21,1821.85L3100.95,1770.35L3304.61,1568.23Z" style="fill-rule:nonzero;"/>
            <path d="M3322.94,292.314L3041.01,162.606L3141.09,-21.848L3043.19,-21.848L2962.66,126.556L2640.11,-21.848L2537.22,-21.848L3322.94,339.66L3322.94,292.314Z" style="fill-rule:nonzero;"/>
            <g>
                <path d="M1668.7,537.452C1668.7,607.239 1544.79,791.377 1544.79,791.377C1544.79,791.377 1420.88,607.239 1420.88,537.452C1420.88,467.665 1476.36,411.089 1544.79,411.089C1613.22,411.089 1668.7,467.665 1668.7,537.452Z" style="fill:rgb(255,0,0);fill-rule:nonzero;"/>
                <path d="M1603.04,531.882C1603.04,564.684 1576.96,591.28 1544.79,591.28C1512.62,591.28 1486.55,564.687 1486.55,531.882C1486.55,499.078 1512.62,472.488 1544.79,472.488C1576.96,472.488 1603.04,499.078 1603.04,531.882Z" style="fill:white;fill-rule:nonzero;"/>
            </g>
        </g>
    </g>
</svg>
