<?xml version="1.0" encoding="UTF-8" standalone="no"?>
<!DOCTYPE svg PUBLIC "-//W3C//DTD SVG 1.1//EN" "http://www.w3.org/Graphics/SVG/1.1/DTD/svg11.dtd">
<svg width="100%" height="100%" viewBox="0 0 236 209" version="1.1" xmlns="http://www.w3.org/2000/svg" xmlns:xlink="http://www.w3.org/1999/xlink" xml:space="preserve" xmlns:serif="http://www.serif.com/" style="fill-rule:evenodd;clip-rule:evenodd;stroke-linejoin:round;stroke-miterlimit:2;">
    <g transform="matrix(1,0,0,1,-1632.47,-1364.53)">
        <g transform="matrix(0.178655,0,0,0.178655,1526.81,1289.06)">
            <path d="M952.213,1185.93C952.878,1185.97 953.551,1185.95 954.224,1185.86L954.391,1188.01C953.252,1188.01 952.305,1187.13 952.217,1186C952.215,1185.98 952.214,1185.95 952.213,1185.93ZM954.391,1188.01L954.509,1188C954.582,1188 954.656,1187.99 954.728,1187.98C954.617,1188 954.504,1188.01 954.391,1188.01ZM954.728,1187.98C954.749,1187.98 954.77,1187.98 954.79,1187.98L954.792,1187.98C959.242,1187.28 962.947,1184.19 964.431,1179.94C965.916,1175.68 964.939,1170.96 961.889,1167.64L883.792,1082.76C883.719,1082.68 883.647,1082.6 883.576,1082.52C883.556,1082.49 883.535,1082.47 883.514,1082.45L882.978,1081.87C882.96,1081.85 882.943,1081.83 882.926,1081.81L843.028,1038.44C842.659,1038.05 842.311,1037.63 841.984,1037.19C826.772,1016.97 822.876,990.509 841.73,971.653C862.934,950.445 897.456,950.448 918.661,971.657L1124.84,1177.84C1175.57,1228.57 1196.45,1303.37 1179.31,1373.05L1128.68,1578.95C1126.86,1586.34 1120.23,1591.53 1112.62,1591.53L813.521,1591.53C808.388,1591.53 803.547,1589.15 800.417,1585.08C797.288,1581.01 796.226,1575.72 797.543,1570.76L842.762,1400.46C862.196,1327.23 840.999,1248.46 787.421,1194.88L672.727,1080.2C651.694,1059.15 638.38,1031.3 635.232,1001.72L591.632,592.983C590.657,583.872 593.498,575.099 599.62,568.284C605.746,561.46 614.174,557.702 623.35,557.702C639.044,557.702 652.587,569.388 654.892,584.897C654.895,584.918 654.898,584.939 654.902,584.959C654.914,585.027 654.932,585.123 654.954,585.218L654.957,585.232C655.644,589.24 693.739,811.132 718.696,910.084C723.136,927.688 727.173,941.427 730.507,949.415C732.074,953.171 733.56,955.734 734.824,957.008C734.971,957.156 735.115,957.307 735.256,957.46L814.654,1043.76C814.943,1044.07 815.219,1044.4 815.483,1044.73C817.477,1047.27 819.643,1049.72 821.97,1052.06C822.101,1052.19 822.229,1052.33 822.355,1052.46L856.426,1089.16C856.442,1089.18 856.459,1089.2 856.476,1089.22L943.853,1184.19C946.616,1187.19 950.697,1188.62 954.728,1187.98ZM1248.91,511.365C1248.92,511.382 1248.93,511.399 1248.94,511.416C1248.97,511.619 1249.04,511.808 1249.14,511.985C1249.12,512.071 1249.11,512.156 1249.09,512.24C1248.97,511.961 1248.91,511.662 1248.91,511.365ZM1249.14,511.985C1249.16,511.886 1249.18,511.787 1249.2,511.687C1249.42,511.864 1249.7,511.964 1250,511.964C1250.07,511.964 1250.14,511.958 1250.21,511.947L1250.63,512.704C1250.52,512.849 1250.39,512.977 1250.24,513.087C1249.84,512.824 1249.39,512.452 1249.14,511.985ZM1250.24,513.087C1250.67,513.371 1251.06,513.528 1251.09,513.542L1251.09,513.545C1250.7,513.545 1250.32,513.441 1250,513.252C1250.08,513.203 1250.16,513.148 1250.24,513.087ZM1251.09,513.545L1252.94,512.524C1288.43,456.095 1349.38,422.412 1415.94,422.412C1522.06,422.412 1608.38,508.739 1608.38,614.849C1608.38,718.399 1536.71,802.206 1465.38,869.835C1418.13,914.64 1372.59,950.017 1367.55,953.903L1260.1,1036.8C1257.12,1039.09 1253.56,1040.24 1250,1040.24C1246.44,1040.24 1242.88,1039.09 1239.9,1036.8L1132.45,953.903C1127.41,950.017 1081.87,914.64 1034.62,869.835C963.288,802.206 891.619,718.399 891.619,614.849C891.619,508.739 977.944,422.412 1084.06,422.412C1150.62,422.412 1211.57,456.095 1247.06,512.524L1247.06,512.525C1247.7,513.534 1248.81,514.145 1250,514.145C1251.19,514.145 1252.3,513.534 1252.94,512.525C1252.54,513.16 1251.84,513.545 1251.09,513.545ZM1251.09,513.542L1251.08,513.53L1251.09,513.543L1251.09,513.542ZM1251.08,513.53L1250.63,512.704C1250.65,512.67 1250.68,512.635 1250.7,512.6C1250.91,513.076 1251.05,513.453 1251.08,513.53ZM1545.61,1188.01L1545.47,1188C1545.48,1188 1545.48,1188 1545.49,1188L1545.61,1188.01ZM1545.27,1187.98C1549.3,1188.62 1553.38,1187.19 1556.15,1184.19L1643.52,1089.22C1643.54,1089.2 1643.56,1089.18 1643.57,1089.16L1677.64,1052.46C1677.77,1052.33 1677.9,1052.19 1678.03,1052.06C1680.36,1049.72 1682.52,1047.27 1684.52,1044.73C1684.78,1044.4 1685.06,1044.07 1685.35,1043.76L1764.74,957.46C1764.88,957.307 1765.03,957.156 1765.18,957.008C1766.44,955.734 1767.93,953.171 1769.49,949.415C1772.83,941.427 1776.86,927.688 1781.3,910.084C1806.26,811.132 1844.36,589.24 1845.04,585.232C1845.04,585.227 1845.05,585.222 1845.05,585.218C1845.07,585.123 1845.09,585.027 1845.1,584.959C1845.1,584.939 1845.11,584.918 1845.11,584.897C1847.41,569.388 1860.96,557.702 1876.65,557.702C1885.83,557.702 1894.25,561.46 1900.38,568.284C1906.5,575.099 1909.34,583.872 1908.37,592.983L1864.77,1001.72C1861.62,1031.3 1848.31,1059.15 1827.27,1080.2L1712.58,1194.88C1659,1248.46 1637.8,1327.23 1657.24,1400.46L1702.46,1570.76C1703.77,1575.72 1702.71,1581.01 1699.58,1585.08C1696.45,1589.15 1691.61,1591.53 1686.48,1591.53L1387.38,1591.53C1379.77,1591.53 1373.14,1586.34 1371.32,1578.95L1320.69,1373.05C1303.55,1303.37 1324.43,1228.57 1375.16,1177.84L1581.34,971.657C1602.54,950.448 1637.07,950.445 1658.27,971.653C1677.12,990.509 1673.23,1016.97 1658.02,1037.19C1657.69,1037.63 1657.34,1038.05 1656.97,1038.44L1617.07,1081.81C1617.06,1081.83 1617.04,1081.85 1617.02,1081.87L1616.49,1082.45C1616.47,1082.47 1616.44,1082.49 1616.42,1082.52C1616.35,1082.6 1616.28,1082.68 1616.21,1082.76L1538.11,1167.64C1535.06,1170.96 1534.08,1175.68 1535.57,1179.94C1537.05,1184.19 1540.76,1187.28 1545.21,1187.98L1545.21,1187.98C1545.23,1187.98 1545.25,1187.98 1545.27,1187.98Z" style="fill:rgb(64,64,64);"/>
        </g>
    </g>
</svg>
