<?xml version="1.0" encoding="UTF-8" standalone="no"?>
<!DOCTYPE svg PUBLIC "-//W3C//DTD SVG 1.1//EN" "http://www.w3.org/Graphics/SVG/1.1/DTD/svg11.dtd">
<svg width="100%" height="100%" viewBox="0 0 803 636" version="1.1" xmlns="http://www.w3.org/2000/svg" xmlns:xlink="http://www.w3.org/1999/xlink" xml:space="preserve" xmlns:serif="http://www.serif.com/" style="fill-rule:evenodd;clip-rule:evenodd;stroke-linejoin:round;stroke-miterlimit:2;">
    <g transform="matrix(4.86111,0,0,4.86111,-2102.68,-17321.5)">
        <g transform="matrix(0.311898,0,0,0.311898,124.937,2863.3)">
            <path d="M1293,2539.16L1209,2539.16L1209,2663.2L1071,2663.2L1071,2489.2L1251,2338.2L1431,2489.2L1431,2663.2L1293,2663.2L1293,2539.16ZM1427.7,2391.88L1515.74,2465.44L1479.56,2508.74L1457.91,2490.65C1457.91,2490.65 1251,2317.76 1251,2317.76L1022.44,2508.74L986.265,2465.44L1251,2244.24L1363.7,2338.41L1363.7,2244.24L1427.7,2244.24L1427.7,2391.88Z" style="fill:white;"/>
        </g>
    </g>
</svg>
