<?xml version="1.0" encoding="UTF-8" standalone="no"?>
<!DOCTYPE svg PUBLIC "-//W3C//DTD SVG 1.1//EN" "http://www.w3.org/Graphics/SVG/1.1/DTD/svg11.dtd">
<svg width="100%" height="100%" viewBox="0 0 229 140" version="1.1" xmlns="http://www.w3.org/2000/svg" xmlns:xlink="http://www.w3.org/1999/xlink" xml:space="preserve" xmlns:serif="http://www.serif.com/" style="fill-rule:evenodd;clip-rule:evenodd;stroke-linejoin:round;stroke-miterlimit:2;">
    <g transform="matrix(1,0,0,1,-295.436,-734.635)">
        <g transform="matrix(0.627267,0,0,0.627267,163.083,380.229)">
            <path d="M492.872,599.369C517.151,599.369 536.862,619.08 536.862,643.359C536.862,667.638 517.151,687.349 492.872,687.349C468.593,687.349 448.882,667.638 448.882,643.359C448.882,619.08 468.593,599.369 492.872,599.369ZM294,599.369C318.279,599.369 337.99,619.08 337.99,643.359C337.99,667.638 318.279,687.349 294,687.349C269.721,687.349 250.01,667.638 250.01,643.359C250.01,619.08 269.721,599.369 294,599.369ZM294.036,786.7C294.012,785.803 294,784.903 294,784C294,728.808 338.808,684 394,684C449.192,684 494,728.808 494,784C494,784.903 493.988,785.803 493.964,786.7L294.036,786.7ZM274.25,786.7L211.03,786.7C211.01,785.955 211,785.208 211,784.459C211,738.65 248.191,701.459 294,701.459C298.203,701.459 302.333,701.772 306.368,702.376C286.427,723.774 274.22,752.473 274.22,784C274.22,784.902 274.23,785.802 274.25,786.7ZM481.498,702.233C485.217,701.723 489.014,701.459 492.872,701.459C538.681,701.459 575.872,738.65 575.872,784.459C575.872,785.208 575.862,785.955 575.842,786.7L513.75,786.7C513.77,785.802 513.78,784.902 513.78,784C513.78,752.402 501.519,723.646 481.498,702.233ZM393.436,565C422.688,565 446.436,588.749 446.436,618C446.436,647.251 422.688,671 393.436,671C364.185,671 340.436,647.251 340.436,618C340.436,588.749 364.185,565 393.436,565Z" style="fill:white;"/>
        </g>
    </g>
</svg>
