<?xml version="1.0" encoding="UTF-8" standalone="no"?>
<!DOCTYPE svg PUBLIC "-//W3C//DTD SVG 1.1//EN" "http://www.w3.org/Graphics/SVG/1.1/DTD/svg11.dtd">
<svg width="100%" height="100%" viewBox="0 0 219 209" version="1.1" xmlns="http://www.w3.org/2000/svg" xmlns:xlink="http://www.w3.org/1999/xlink" xml:space="preserve" xmlns:serif="http://www.serif.com/" style="fill-rule:evenodd;clip-rule:evenodd;stroke-linejoin:round;stroke-miterlimit:2;">
    <g transform="matrix(1,0,0,1,-197.69,-1342.17)">
        <g transform="matrix(1,0,0,1,-363.125,-775.449)">
            <path d="M710.44,2287.36C709.714,2287.21 709.044,2286.51 708.251,2285.3C706.177,2282.14 703.733,2279.22 701.469,2276.18C698.931,2272.78 695.747,2270.33 691.621,2269.1C685.489,2267.28 681.576,2263.1 679.198,2257.27C676.62,2250.95 675.076,2244.42 675.021,2237.58C674.964,2230.65 675.008,2223.73 675.008,2216.8C675.015,2209.22 674.98,2201.63 675.043,2194.05C675.059,2192.35 674.375,2190.16 676.83,2189.47C678.957,2188.87 680.724,2189.84 682.121,2191.38C684.077,2193.53 684.747,2196.29 685.428,2199.01C688.467,2211.15 691.501,2223.3 694.507,2235.45C695.353,2238.86 696.586,2242.25 700.904,2241.26C705.523,2240.2 705.041,2236.52 704.121,2232.9C700.954,2220.45 697.862,2207.97 694.709,2195.52C692.414,2186.46 687.8,2179.8 677.434,2179.44C675.345,2179.36 675.028,2178.2 675.037,2176.54C675.126,2160.88 675.107,2145.22 675.35,2129.56C675.42,2125.17 676.883,2121.05 680.903,2118.55C683.054,2117.2 684.955,2116.91 685.01,2120.55C685.581,2157.11 699.22,2189.93 714.21,2222.36C720.035,2234.96 726.651,2247.11 735.724,2257.72C736.667,2258.82 737.158,2259.74 737.174,2260.63C737.174,2260.63 746.752,2252.39 747.97,2251.16C754.275,2244.77 755.026,2244.89 761.41,2251.24C766.554,2256.36 771.645,2261.53 776.833,2266.61C780.053,2269.76 780.199,2272.64 776.899,2275.91C761.094,2291.6 745.399,2307.39 729.61,2323.09C725.352,2327.33 722.606,2326.93 719.455,2321.76C713.978,2312.78 708.778,2303.62 702.931,2294.87L710.44,2287.36Z" style="fill:white;"/>
            <g transform="matrix(-1,0,0,1,1340.13,0)">
                <path d="M710.44,2287.36C709.714,2287.21 709.044,2286.51 708.251,2285.3C706.177,2282.14 703.733,2279.22 701.469,2276.18C698.931,2272.78 695.747,2270.33 691.621,2269.1C685.489,2267.28 681.576,2263.1 679.198,2257.27C676.62,2250.95 675.076,2244.42 675.021,2237.58C674.964,2230.65 675.008,2223.73 675.008,2216.8C675.015,2209.22 674.98,2201.63 675.043,2194.05C675.059,2192.35 674.375,2190.16 676.83,2189.47C678.957,2188.87 680.724,2189.84 682.121,2191.38C684.077,2193.53 684.747,2196.29 685.428,2199.01C688.467,2211.15 691.501,2223.3 694.507,2235.45C695.353,2238.86 696.586,2242.25 700.904,2241.26C705.523,2240.2 705.041,2236.52 704.121,2232.9C700.954,2220.45 697.862,2207.97 694.709,2195.52C692.414,2186.46 687.8,2179.8 677.434,2179.44C675.345,2179.36 675.028,2178.2 675.037,2176.54C675.126,2160.88 675.107,2145.22 675.35,2129.56C675.42,2125.17 676.883,2121.05 680.903,2118.55C683.054,2117.2 684.955,2116.91 685.01,2120.55C685.581,2157.11 699.22,2189.93 714.21,2222.36C720.035,2234.96 726.651,2247.11 735.724,2257.72C736.667,2258.82 737.158,2259.74 737.174,2260.63C737.174,2260.63 746.752,2252.39 747.97,2251.16C754.275,2244.77 755.026,2244.89 761.41,2251.24C766.554,2256.36 771.645,2261.53 776.833,2266.61C780.053,2269.76 780.199,2272.64 776.899,2275.91C761.094,2291.6 745.399,2307.39 729.61,2323.09C725.352,2327.33 722.606,2326.93 719.455,2321.76C713.978,2312.78 708.778,2303.62 702.931,2294.87L710.44,2287.36Z" style="fill:white;"/>
            </g>
        </g>
    </g>
</svg>
